<svg width="83" height="91" viewBox="0 0 83 91" fill="none" xmlns="http://www.w3.org/2000/svg">
<path d="M74 53.9999C74 74.4345 57.4345 90.9999 37 90.9999C16.5655 90.9999 0 74.4345 0 53.9999C0 33.5654 16.5655 16.9999 37 16.9999C57.4345 16.9999 74 33.5654 74 53.9999Z" fill="#46A358" fill-opacity="0.13"/>
<path d="M22.2488 41.7765C39.0215 40.0237 55.9382 42.7143 72.6698 40.2899C73.4514 40.1752 73.1182 38.9917 72.3407 39.1064C55.7284 41.5103 38.9063 38.8074 22.2488 40.5479C21.4672 40.6298 21.4589 41.8584 22.2488 41.7765Z" fill="#727272"/>
<path d="M22.0843 40.5725C20.4469 41.0804 20.6526 43.2099 21.5207 44.3402C22.9441 46.1913 26.1407 46.2322 28.2264 46.0356C29.0122 45.9619 29.0163 44.7333 28.2264 44.8071C26.8771 44.934 25.4783 44.9217 24.1659 44.5368C23.483 44.3361 22.7631 44.0535 22.3722 43.4147C22.1707 43.083 21.7839 41.9527 22.4134 41.7602C23.1704 41.5226 22.8454 40.335 22.0843 40.5725Z" fill="#727272"/>
<path d="M69.7818 40.6748C70.6498 40.6216 71.4891 40.4742 72.353 40.3595C73.723 40.1752 74.4265 40.5438 74.6651 41.9771C74.8625 43.1689 74.1097 43.517 73.0483 43.8528C72.5464 44.0125 72.0198 44.1108 71.5014 44.2132C70.115 44.4835 68.7245 44.6186 67.3134 44.6677C66.5235 44.6964 66.5194 45.925 67.3134 45.8963C69.7201 45.8103 76.4793 45.7202 76.216 41.9321C76.1502 40.9861 75.2328 39.6797 74.373 39.2538C73.0894 38.6149 71.09 39.3644 69.7776 39.4463C68.9919 39.4954 68.9878 40.724 69.7818 40.6748Z" fill="#727272"/>
<path d="M24.0549 45.7735C23.8862 48.374 20.9241 49.8442 19.3526 51.6297C18.1184 53.0344 17.1475 54.652 16.444 56.3761C14.9301 60.0701 14.6421 64.2104 15.4114 68.105C16.9953 76.0949 23.0593 82.6883 30.6331 85.5181C31.3778 85.7966 31.6987 84.609 30.9622 84.3346C23.0963 81.3942 16.9829 74.0268 16.3 65.5782C15.975 61.5648 16.8266 57.3877 19.077 54.0091C20.9447 51.2079 25.0546 49.4142 25.2891 45.7735C25.3384 44.9872 24.1042 44.9872 24.0549 45.7735Z" fill="#727272"/>
<path d="M70.8226 45.2493C70.8226 48.4805 73.1799 50.5076 75.5784 52.3137C77.6395 53.8617 79.2357 55.3687 80.2519 57.7972C81.1364 59.9063 81.6259 62.1833 81.737 64.4643C82.1402 72.8556 77.2445 80.6448 69.7201 84.3101C69.0084 84.6582 69.6296 85.7188 70.3413 85.3707C77.3309 81.9676 82.2595 75.0506 82.9177 67.3024C83.251 63.3832 82.568 59.0668 80.5686 55.6308C78.3677 51.8427 72.0568 50.1063 72.0527 45.2493C72.0568 44.4589 70.8226 44.4589 70.8226 45.2493Z" fill="#727272"/>
<path d="M30.267 84.6172C29.4688 86.3822 30.9005 87.9057 32.6778 87.9876C34.6072 88.0818 36.6436 87.6354 38.5772 87.5535C40.8193 87.4552 43.0614 87.4511 45.3036 87.4839C53.6714 87.6108 62.0351 88.2456 70.3659 87.1153C70.6498 87.0784 70.7938 86.7672 70.8185 86.5215C70.8843 85.8335 70.8267 85.3256 70.6251 84.6786C70.3906 83.9251 69.2017 84.2486 69.4362 85.0062C69.646 85.5017 69.6953 86.0096 69.5843 86.5215C69.7365 86.3249 69.8846 86.1283 70.0368 85.9277C63.5408 86.8081 56.9873 86.587 50.4543 86.3822C47.2865 86.2839 44.1146 86.1938 40.9469 86.2471C39.4987 86.2717 38.0506 86.329 36.6025 86.4273C35.8126 86.4805 35.0268 86.5542 34.2411 86.632C33.661 86.6894 30.4439 87.1849 31.3284 85.2274C31.6534 84.5189 30.592 83.8964 30.267 84.6172Z" fill="#727272"/>
<path d="M22.0802 52.2236C17.0529 58.3788 16.662 66.9707 21.1751 73.5231C21.3972 73.8466 21.9321 73.5395 21.7099 73.2119C17.3614 66.901 17.6617 58.604 22.5204 52.6536C22.7631 52.3546 22.3311 51.9164 22.0802 52.2236Z" fill="#727272"/>
<path d="M22.4134 75.8041C22.8165 76.3857 23.2773 76.9221 23.7916 77.4095C24.0795 77.6798 24.5156 77.2498 24.2276 76.9754C23.7504 76.5249 23.3226 76.0335 22.9441 75.497C22.7219 75.1735 22.1871 75.4765 22.4134 75.8041Z" fill="#727272"/>
<path d="M25.865 79.3384C26.2641 79.3384 26.2641 78.7241 25.865 78.7241C25.466 78.7241 25.466 79.3384 25.865 79.3384Z" fill="#727272"/>
<path d="M69.6296 45.2821C69.3128 46.4615 69.0413 47.6492 69.5062 48.8286C69.9381 49.9221 70.8144 50.909 71.559 51.8141C73.3445 53.9764 76.9977 56.1592 77.1705 59.1733C77.1911 59.5664 77.8082 59.5705 77.7876 59.1733C77.6601 56.9168 75.9898 55.4712 74.4512 54.0051C73.4597 53.059 72.5258 52.0557 71.6701 50.9827C71.0941 50.2579 70.4441 49.4921 70.1109 48.6198C69.7036 47.5591 69.9381 46.5148 70.222 45.45C70.3248 45.0651 69.7283 44.9012 69.6296 45.2821Z" fill="#727272"/>
<path d="M77.4379 60.5985C77.5243 61.3848 77.6107 62.1711 77.6971 62.9574C77.7382 63.3464 78.3594 63.3505 78.3142 62.9574C78.2278 62.1711 78.1414 61.3848 78.055 60.5985C78.0138 60.2094 77.3967 60.2054 77.4379 60.5985Z" fill="#727272"/>
<path d="M77.4955 64.575C77.5408 64.8043 77.5037 65.0214 77.4173 65.2343C77.3556 65.3899 77.4873 65.5701 77.6313 65.6111C77.8082 65.6602 77.948 65.5497 78.0097 65.3981C78.1373 65.0787 78.1537 64.747 78.0879 64.4112C78.018 64.0262 77.4214 64.19 77.4955 64.575Z" fill="#727272"/>
<path d="M50.7423 60.0824C52.2151 57.2976 54.9879 55.4752 58.2091 55.6349C62.0434 55.8233 66.0751 59.1445 63.3886 63.0678C61.813 65.3653 58.9826 66.8519 56.8968 68.662C54.5806 70.6727 52.4619 72.8883 50.5078 75.2554C50.0059 75.8615 50.8739 76.7338 51.3799 76.1236C54.3585 72.5156 57.7278 69.4646 61.4304 66.6143C63.9029 64.7059 66.6387 61.8106 65.1371 58.4565C63.8947 55.6799 60.4636 54.3162 57.5715 54.3981C54.1651 54.4964 51.2442 56.4949 49.6726 59.4599C49.3065 60.1602 50.372 60.7826 50.7423 60.0824Z" fill="#727272"/>
<path d="M50.4502 59.1282C47.8131 56.1755 44.5219 53.1327 40.2516 53.3539C37.0838 53.5177 34.3563 55.9093 33.8996 59.0586C33.336 62.8959 36.2158 66.2622 39.0215 68.4859C42.469 71.2175 47.6691 72.1635 50.2486 75.8656C50.697 76.5127 51.7666 75.8984 51.3141 75.2472C49.7055 72.9375 47.3647 71.7499 44.8798 70.554C41.7203 69.0347 38.606 67.155 36.5737 64.2228C34.3069 60.9588 34.6813 55.9667 39.075 54.7709C43.3741 53.6037 46.9944 57.1093 49.5739 59.9964C50.1046 60.5902 50.9768 59.7179 50.4502 59.1282Z" fill="#727272"/>
<path d="M46.4719 13.6289C45.283 15.782 43.4688 17.5069 41.1405 18.3999C40.2313 18.7506 39.0342 18.7302 39.1535 17.4865C39.2275 16.7117 40.0668 16.0389 40.6756 15.676C41.7123 15.0561 43.041 14.8522 44.1558 14.3711C44.8799 14.0571 44.2546 13.0009 43.5347 13.3149C41.5436 14.1753 39.3633 14.3792 38.232 16.467C37.6273 17.5844 37.4298 19.138 38.7915 19.7741C40.2683 20.4633 42.3005 19.35 43.5264 18.5671C45.2295 17.4824 46.5665 16.0022 47.5333 14.2446C47.92 13.5555 46.8545 12.9357 46.4719 13.6289Z" fill="#46A358"/>
<path d="M43.8967 13.119C42.3992 13.2821 40.9142 13.2903 39.4291 13.013C38.8861 12.9111 38.3472 12.7724 37.8206 12.6052C37.3763 12.4747 36.9485 12.3157 36.5248 12.1241C35.8954 11.333 35.9571 10.8926 36.7181 10.7947C38.9478 9.09017 42.4322 10.8803 44.6207 11.7081C45.3653 11.9895 45.6862 10.8069 44.9498 10.5296C43.0451 9.80787 40.9553 8.72317 38.8614 8.95561C37.6602 9.0861 34.8916 9.60398 34.5707 11.1005C33.8303 14.5666 42.1072 14.5422 43.8967 14.3464C44.6783 14.2567 44.6865 13.0334 43.8967 13.119Z" fill="#46A358"/>
<path d="M45.353 10.55C43.4812 9.07788 41.8192 6.78616 41.9097 4.30279C41.9509 3.1977 42.6584 2.72876 43.6828 3.22625C44.2464 3.49946 44.6372 4.19676 44.9457 4.7228C45.6615 5.95429 45.9618 7.36113 46.2251 8.7435C46.3732 9.5142 47.5621 9.18798 47.414 8.41728C47.019 6.35392 46.4555 4.20492 44.9169 2.66351C44.0078 1.75417 42.4939 0.710251 41.4243 1.93359C38.9231 4.79212 42.1977 9.61615 44.4808 11.4145C45.0979 11.8997 45.9783 11.0393 45.353 10.55Z" fill="#46A358"/>
<path d="M47.3852 8.75588C47.6567 6.79038 48.5206 3.05104 50.7996 2.41491C52.9182 1.82771 52.7084 5.20412 52.116 6.32143C51.5195 7.4469 50.3471 8.50305 49.4955 9.44502C48.969 10.0281 49.837 10.8967 50.3676 10.3095C51.5894 8.95569 53.416 7.40205 53.6792 5.49772C53.8849 4.02156 53.7738 1.79101 52.1325 1.13856C50.635 0.543203 49.1541 1.89703 48.3025 2.96133C47.0478 4.52721 46.4637 6.46823 46.1922 8.4215C46.0852 9.20035 47.2741 9.53473 47.3852 8.75588Z" fill="#46A358"/>
<path d="M50.454 10.4646C51.8897 9.2739 54.5555 8.44611 56.3079 9.51857C58.5787 10.9132 55.3618 11.7491 54.3004 11.8184C53.165 11.8959 52.0296 11.8266 50.9024 11.6961C50.1167 11.6064 50.1208 12.8297 50.9024 12.9194C52.7454 13.1315 55.2342 13.4047 56.9497 12.4994C58.0151 11.9367 58.7803 10.5747 58.1262 9.42886C57.394 8.14435 55.333 7.83444 53.996 7.87114C52.3381 7.92007 50.8448 8.55621 49.586 9.60012C48.9731 10.1058 49.8493 10.9703 50.454 10.4646Z" fill="#46A358"/>
<path d="M50.5857 12.8785C51.8568 13.3434 53.1198 14.0447 53.8438 15.2273C54.7488 16.7116 54.7694 19.4437 52.1366 18.934C49.8205 18.4855 48.1462 16.0469 47.6731 13.9306C47.5003 13.1639 46.3115 13.4861 46.4842 14.2568C46.9039 16.1407 47.9529 17.8045 49.5243 18.9585C50.7585 19.8678 52.9264 20.9525 54.3786 19.9208C55.8719 18.8606 55.8719 16.6668 55.1972 15.158C54.3992 13.3801 52.7002 12.3484 50.923 11.6959C50.1661 11.4268 49.8452 12.6094 50.5857 12.8785Z" fill="#46A358"/>
<path d="M38.1045 16.2469C34.5008 18.3999 31.8433 20.7977 31.2139 25.112C30.5269 29.7974 31.6253 34.6948 32.629 39.2578C32.7977 40.0285 33.9866 39.7023 33.8179 38.9316C32.9294 34.8946 32.0202 30.7108 32.2958 26.5555C32.5961 22.0251 34.9657 19.5499 38.7215 17.3071C39.4044 16.8993 38.7874 15.8391 38.1045 16.2469Z" fill="#46A358"/>
<path d="M54.0083 14.8644C59.0477 15.2558 62.6143 19.2684 63.9678 23.8641C65.4405 28.8675 64.6178 34.136 63.8156 39.1762C63.6922 39.9469 64.881 40.2772 65.0045 39.5024C65.9424 33.5896 66.8844 27.3098 64.4614 21.609C62.6267 17.2907 58.8173 14.0162 54.0083 13.641C53.2144 13.5799 53.2185 14.8032 54.0083 14.8644Z" fill="#46A358"/>
<path d="M39.3263 18.7832C33.2996 23.1301 35.2536 32.9576 36.4713 39.0661C36.6235 39.8368 37.8165 39.5106 37.6602 38.7399C37.0226 35.5429 36.4302 32.3092 36.4919 29.0389C36.5536 25.8582 37.1583 21.8497 39.9475 19.8394C40.5851 19.3786 39.9721 18.3183 39.3263 18.7832Z" fill="#46A358"/>
<path d="M46.0934 14.8277C43.8514 18.249 42.4034 22.0739 41.8768 26.1273C41.6012 28.2518 41.5806 30.4049 41.8357 32.5335C42.1113 34.8578 42.8641 37.0924 43.1438 39.4168C43.2343 40.1875 44.4726 40.1997 44.378 39.4168C43.8926 35.3594 42.642 31.6241 42.9711 27.4729C43.3125 23.1627 44.7935 19.0604 47.163 15.4434C47.5908 14.7828 46.5254 14.1712 46.0934 14.8277Z" fill="#46A358"/>
<path d="M49.1088 18.6078C50.9477 21.6172 51.3344 25.0222 51.6553 28.4598C51.9885 32.036 52.26 35.6163 52.4904 39.2007C52.5397 39.9836 53.7739 39.9877 53.7245 39.2007C53.4653 35.1433 53.1732 31.0859 52.7536 27.0407C52.4245 23.8641 51.8692 20.7527 50.1743 17.988C49.7629 17.3192 48.6933 17.9309 49.1088 18.6078Z" fill="#46A358"/>
<path d="M54.7241 19.1788C59.3192 24.9081 59.4714 32.2236 59.3069 39.2048C59.2904 39.9918 60.5246 39.9918 60.541 39.2048C60.7138 31.8403 60.4176 24.329 55.5963 18.3143C55.1026 17.6985 54.2346 18.5712 54.7241 19.1788Z" fill="#46A358"/>
<path d="M46.9532 20.6712C46.8833 20.9444 46.8175 21.2136 46.7475 21.4868C46.6529 21.8701 47.2453 22.0332 47.344 21.6499C47.414 21.3767 47.4798 21.1075 47.5497 20.8343C47.6443 20.4551 47.0519 20.292 46.9532 20.6712Z" fill="#46A358"/>
<path d="M48.2861 22.7956C48.2861 23.1015 48.2861 23.4073 48.2861 23.7131C48.2861 24.1087 48.9031 24.1087 48.9031 23.7131C48.9031 23.4073 48.9031 23.1015 48.9031 22.7956C48.9031 22.4001 48.2861 22.4001 48.2861 22.7956Z" fill="#46A358"/>
<path d="M45.3077 24.7327C45.2748 25.1731 45.2378 25.6176 45.2049 26.058C45.1761 26.4495 45.7931 26.4495 45.8219 26.058C45.8548 25.6176 45.8919 25.1731 45.9248 24.7327C45.9536 24.3413 45.3365 24.3413 45.3077 24.7327Z" fill="#46A358"/>
<path d="M49.3145 26.8734C49.3145 27.2812 49.3145 27.689 49.3145 28.0968C49.3145 28.4923 49.9316 28.4923 49.9316 28.0968C49.9316 27.689 49.9316 27.2812 49.9316 26.8734C49.9316 26.4779 49.3145 26.4779 49.3145 26.8734Z" fill="#46A358"/>
<path d="M46.9491 29.1162C46.9491 29.5566 46.9491 30.0011 46.9491 30.4415C46.9491 30.837 47.5662 30.837 47.5662 30.4415C47.5662 30.0011 47.5662 29.5566 47.5662 29.1162C47.5662 28.7207 46.9491 28.7207 46.9491 29.1162Z" fill="#46A358"/>
<path d="M45.6121 33.6018C45.6121 34.2135 45.6121 34.8251 45.6121 35.4368C45.6121 35.8324 46.2292 35.8324 46.2292 35.4368C46.2292 34.8251 46.2292 34.2135 46.2292 33.6018C46.2292 33.2063 45.6121 33.2063 45.6121 33.6018Z" fill="#46A358"/>
<path d="M43.7815 29.6015C43.8514 30.0093 43.9255 30.4171 43.9954 30.8248C44.0612 31.2122 44.6577 31.0491 44.5919 30.6617C44.522 30.254 44.4479 29.8462 44.378 29.4384C44.3081 29.0551 43.7116 29.2182 43.7815 29.6015Z" fill="#46A358"/>
<path d="M48.5 35.6408C48.5329 36.0486 48.5699 36.4563 48.6028 36.8641C48.6358 37.2556 49.2528 37.2556 49.2199 36.8641C49.187 36.4563 49.15 36.0486 49.1171 35.6408C49.0842 35.2493 48.463 35.2452 48.5 35.6408Z" fill="#46A358"/>
<path d="M50.3471 31.0532C50.38 31.461 50.417 31.8688 50.4499 32.2766C50.4828 32.664 51.0999 32.668 51.067 32.2766C51.0341 31.8688 50.997 31.461 50.9641 31.0532C50.9312 30.6618 50.3142 30.6577 50.3471 31.0532Z" fill="#46A358"/>
<path d="M57.431 17.4009C57.9082 17.8128 58.3854 18.2246 58.8626 18.6324C59.1629 18.8893 59.599 18.457 59.2986 18.2001C58.8214 17.7883 58.3442 17.3764 57.8671 16.9686C57.5709 16.7117 57.1307 17.1399 57.431 17.4009Z" fill="#46A358"/>
<path d="M57.6902 20.8057C57.9576 21.2828 58.2291 21.764 58.4965 22.2411C58.6898 22.5837 59.2246 22.2778 59.0313 21.9312C58.7639 21.4541 58.4924 20.9729 58.225 20.4958C58.0275 20.1533 57.4968 20.4632 57.6902 20.8057Z" fill="#46A358"/>
<path d="M60.1625 21.0055C60.467 21.4174 60.7714 21.8292 61.0758 22.237C61.3062 22.551 61.8451 22.2451 61.6106 21.9271C61.3062 21.5152 61.0018 21.1034 60.6973 20.6956C60.4628 20.3857 59.9281 20.6874 60.1625 21.0055Z" fill="#46A358"/>
<path d="M61.6846 26.3393C61.7875 27.053 61.8944 27.7666 61.9973 28.4802C62.0549 28.8676 62.6473 28.7045 62.5938 28.3171C62.4909 27.6035 62.384 26.8899 62.2811 26.1762C62.2194 25.7888 61.627 25.956 61.6846 26.3393Z" fill="#46A358"/>
<path d="M59.6113 24.5084C59.7141 24.8468 59.817 25.1894 59.9198 25.5278C60.035 25.903 60.6274 25.744 60.5163 25.3647C60.4135 25.0263 60.3106 24.6837 60.2078 24.3453C60.0926 23.9701 59.4961 24.1292 59.6113 24.5084Z" fill="#46A358"/>
<path d="M62.8818 32.1746C62.927 32.6598 62.9188 33.1451 62.8406 33.6263C62.7789 34.0096 63.3713 34.1768 63.4371 33.7894C63.5235 33.2511 63.5523 32.7169 63.5029 32.1746C63.4618 31.7872 62.8447 31.7831 62.8818 32.1746Z" fill="#46A358"/>
<path d="M61.4501 34.1115C61.4501 34.4866 61.4501 34.8577 61.4501 35.2329C61.4501 35.6284 62.0672 35.6284 62.0672 35.2329C62.0672 34.8577 62.0672 34.4866 62.0672 34.1115C62.0672 33.7159 61.4501 33.7159 61.4501 34.1115Z" fill="#46A358"/>
<path d="M62.0878 23.8928C62.2565 24.3005 62.4292 24.7083 62.5979 25.1161C62.6637 25.2711 62.8036 25.3771 62.9764 25.3281C63.1204 25.2914 63.2561 25.1039 63.1903 24.953C63.0216 24.5452 62.8489 24.1374 62.6802 23.7297C62.6144 23.5747 62.4745 23.4687 62.3017 23.5176C62.1577 23.5543 62.0261 23.7419 62.0878 23.8928Z" fill="#46A358"/>
<path d="M60.9359 30.9512C60.9359 31.1877 60.9359 31.4283 60.9359 31.6648C60.9359 32.0604 61.553 32.0604 61.553 31.6648C61.553 31.4283 61.553 31.1877 61.553 30.9512C61.553 30.5557 60.9359 30.5557 60.9359 30.9512Z" fill="#46A358"/>
<path d="M62.1701 37.7816C62.1536 38.0711 62.0837 38.3484 61.9767 38.6175C61.915 38.7725 62.0467 38.9519 62.1906 38.9927C62.3675 39.0416 62.5074 38.9315 62.5691 38.7807C62.7007 38.4585 62.7666 38.1282 62.7871 37.7816C62.8118 37.386 62.1947 37.3901 62.1701 37.7816Z" fill="#46A358"/>
<path d="M36.2903 19.8842C36.0805 20.1859 35.8707 20.4877 35.6568 20.7894C35.4305 21.1157 35.9653 21.4215 36.1916 21.0993C36.4014 20.7976 36.6112 20.4958 36.8251 20.1941C37.0472 19.8679 36.5124 19.562 36.2903 19.8842Z" fill="#46A358"/>
<path d="M34.5296 24.3452C34.4514 24.7163 34.3774 25.0873 34.2992 25.4625C34.2211 25.8458 34.8135 26.013 34.8957 25.6256C34.9739 25.2545 35.0479 24.8835 35.1261 24.5083C35.2043 24.125 34.6078 23.9619 34.5296 24.3452Z" fill="#46A358"/>
<path d="M34.3321 22.1228C34.0071 22.551 33.7644 23.024 33.5999 23.5337C33.4765 23.9089 34.073 24.0679 34.1964 23.6968C34.3486 23.2361 34.5748 22.8201 34.8669 22.4327C35.1055 22.1147 34.5666 21.8129 34.3321 22.1228Z" fill="#46A358"/>
<path d="M33.0774 26.1802C33.0034 26.6899 32.9252 27.1956 32.8512 27.7053C32.7936 28.0886 33.3901 28.2558 33.4477 27.8684C33.5217 27.3587 33.5999 26.853 33.6739 26.3433C33.7315 25.9559 33.135 25.7887 33.0774 26.1802Z" fill="#46A358"/>
<path d="M33.6945 29.1162C33.641 29.626 33.674 30.1275 33.7727 30.6291C33.8467 31.0165 34.4432 30.8534 34.3692 30.466C34.2828 30.0174 34.2663 29.5689 34.3157 29.1162C34.3486 28.7248 33.7316 28.7288 33.6945 29.1162Z" fill="#46A358"/>
<path d="M34.2005 32.9903C34.2334 33.2961 34.2704 33.6019 34.3034 33.9078C34.3198 34.0709 34.4309 34.2136 34.6119 34.2136C34.7641 34.2136 34.941 34.075 34.9204 33.9078C34.8875 33.6019 34.8505 33.2961 34.8176 32.9903C34.8011 32.8272 34.6901 32.6844 34.5091 32.6844C34.3568 32.6844 34.1841 32.8231 34.2005 32.9903Z" fill="#46A358"/>
<path d="M33.2008 35.2901C33.4394 35.6775 33.6122 36.0853 33.7192 36.5298C33.8138 36.9131 34.4062 36.75 34.3157 36.3667C34.1964 35.8773 33.9989 35.4125 33.7356 34.9802C33.5258 34.6458 32.9952 34.9557 33.2008 35.2901Z" fill="#46A358"/>
<path d="M34.5173 37.8632C34.5872 38.0345 34.653 38.2017 34.7229 38.3729C34.7847 38.5238 34.9286 38.6339 35.1014 38.585C35.2495 38.5442 35.3812 38.3648 35.3153 38.2098C35.2454 38.0385 35.1796 37.8714 35.1096 37.7001C35.0479 37.5492 34.904 37.4391 34.7312 37.488C34.5872 37.5247 34.4556 37.7082 34.5173 37.8632Z" fill="#46A358"/>
</svg>
