<svg width="90" height="90" viewBox="0 0 90 90" fill="none" xmlns="http://www.w3.org/2000/svg">
<path d="M74 53C74 73.4345 57.4345 90 37 90C16.5655 90 0 73.4345 0 53C0 32.5655 16.5655 16 37 16C57.4345 16 74 32.5655 74 53Z" fill="#46A358" fill-opacity="0.13"/>
<path d="M51.3006 45.027C51.3204 45.5112 51.4594 45.9693 51.7176 46.3815C51.9393 46.7414 52.5052 46.3979 52.2835 46.0413C52.0882 45.7239 51.979 45.3869 51.9658 45.0172C51.9459 44.5952 51.284 44.6083 51.3006 45.027Z" fill="#46A358"/>
<path d="M59.8093 44.9844C59.7762 45.1677 59.7398 45.3476 59.7067 45.5308C59.6736 45.7042 59.7663 45.8842 59.945 45.93C60.1105 45.9725 60.3157 45.8678 60.3488 45.6944C60.3819 45.5112 60.4183 45.3312 60.4514 45.148C60.4845 44.9746 60.3918 44.7947 60.2131 44.7489C60.0476 44.7064 59.8424 44.811 59.8093 44.9844Z" fill="#46A358"/>
<path d="M64.3401 45.6355C64.767 45.6257 64.7537 44.9714 64.3268 44.9812C63.8999 44.991 63.9131 45.6454 64.3401 45.6355Z" fill="#46A358"/>
<path d="M39.4823 46.7937C39.9092 46.7839 39.896 46.1295 39.469 46.1394C39.0421 46.1492 39.0554 46.8035 39.4823 46.7937Z" fill="#46A358"/>
<path d="M51.5885 5.3873C49.0335 12.8369 47.6402 20.6399 47.488 28.5083C47.4119 32.4638 47.6469 36.4225 48.1929 40.342C48.4445 42.1479 48.7622 43.9474 49.1461 45.7304C49.4472 47.1242 49.6028 48.7175 50.6486 49.7808C51.0954 50.2355 51.7804 49.5256 51.337 49.0741C50.2084 47.9257 50.0926 45.4981 49.8013 43.9964C49.434 42.0989 49.1428 40.1849 48.9276 38.2612C48.5206 34.6231 48.3849 30.9588 48.514 27.301C48.7754 19.9201 50.1555 12.621 52.5516 5.62941C52.7567 5.03069 51.7904 4.79186 51.5885 5.3873Z" fill="#46A358"/>
<path d="M55.4408 5.52141C56.7778 12.9645 56.8109 20.5712 57.079 28.1058C57.2047 31.6458 57.4199 35.1956 57.347 38.7388C57.2709 42.4162 56.5461 45.8744 55.5698 49.4078C55.4011 50.0196 56.3641 50.2584 56.5329 49.6499C57.4496 46.3422 58.1777 43.0771 58.3167 39.6353C58.4723 35.791 58.2108 31.9272 58.0751 28.0895C57.8038 20.4632 57.7475 12.778 56.3939 5.24332C56.2814 4.6217 55.3282 4.90306 55.4408 5.52141Z" fill="#46A358"/>
<path d="M62.629 18.3105C63.0824 28.4952 63.4928 38.8043 60.9776 48.7797C60.822 49.3947 61.7851 49.6336 61.9407 49.0218C64.4757 38.9613 64.0819 28.5607 63.6219 18.2908C63.5921 17.6594 62.5993 17.6758 62.629 18.3105Z" fill="#46A358"/>
<path d="M59.8226 18.4609C58.416 20.0869 57.4761 21.9779 57.0624 24.0816C56.94 24.7 57.903 24.9453 58.0255 24.3237C58.4061 22.3803 59.2368 20.6464 60.5374 19.1414C60.9511 18.6604 60.2396 17.9799 59.8226 18.4609Z" fill="#46A358"/>
<path d="M69.6055 24.7164C69.5823 32.0908 68.5829 39.3964 66.6236 46.5124C66.4548 47.1242 67.4179 47.363 67.5867 46.7545C69.5658 39.5568 70.5752 32.1562 70.5984 24.6968C70.5984 24.0653 69.6055 24.085 69.6055 24.7164Z" fill="#46A358"/>
<path d="M67.7191 22.5212C65.1509 25.4624 63.89 29.0842 62.9832 32.8106C62.8342 33.4257 63.7973 33.6678 63.9462 33.0527C64.8133 29.5029 65.9849 26.012 68.4372 23.2017C68.8509 22.724 68.1361 22.0402 67.7191 22.5212Z" fill="#46A358"/>
<path d="M43.7549 11.4171C45.5221 15.5329 46.8062 19.7991 47.6005 24.1995C47.713 24.8212 48.6629 24.5365 48.5537 23.9182C47.7594 19.5178 46.472 15.2515 44.708 11.1357C44.4598 10.5632 43.5067 10.8347 43.7549 11.4171Z" fill="#46A358"/>
<path d="M41.9148 11.7736C41.3952 18.0193 40.8855 24.3434 41.9379 30.5662C43.04 37.0572 45.7472 43.3912 47.8289 49.6237C48.0275 50.2224 48.9806 49.9444 48.782 49.3424C46.7665 43.2996 44.1619 37.1553 42.997 30.8868C41.8254 24.5757 42.3781 18.1011 42.9076 11.754C42.9606 11.1258 41.9677 11.1487 41.9148 11.7736Z" fill="#46A358"/>
<path d="M35.5969 26.8626C38.9097 29.9118 41.5938 33.478 43.6059 37.4858C43.8906 38.0518 44.7345 37.5348 44.4532 36.9721C42.4046 32.8923 39.6577 29.2575 36.2853 26.1527C35.8187 25.7241 35.1303 26.4308 35.5969 26.8626Z" fill="#46A358"/>
<path d="M33.3233 28.1223C35.8882 35.6995 39.34 42.9364 43.6258 49.7088C43.9634 50.2454 44.8139 49.735 44.473 49.1952C40.2302 42.4915 36.8148 35.3396 34.2764 27.8409C34.0745 27.2455 33.1214 27.5203 33.3233 28.1223Z" fill="#46A358"/>
<path d="M39.0686 47.7621C37.6058 45.1775 35.4612 43.028 32.7938 41.6604C32.251 41.3823 31.7314 41.4543 32.7838 41.3496C33.1677 41.3103 33.5649 41.294 33.9488 41.3005C35.1998 41.3136 36.3316 41.5361 37.4072 42.2068C38.6582 42.9854 39.7504 44.1044 40.869 45.0564C41.3522 45.4686 42.0405 44.762 41.5574 44.3497C40.1409 43.1392 38.7376 41.6277 37.0001 40.8752C36.0305 40.4531 34.9813 40.3288 33.9289 40.3256C33.2604 40.3223 31.8704 40.198 31.3111 40.7607C30.219 41.8534 32.3106 42.498 32.9625 42.8807C35.1998 44.1829 36.9604 46.0543 38.2214 48.2856C38.5325 48.8287 39.3797 48.315 39.0686 47.7621Z" fill="#46A358"/>
<path d="M69.2812 39.7923C70.2509 37.6559 72.5046 36.9852 74.6492 36.5403C74.9636 36.4748 75.0894 36.0626 74.9305 35.8139C73.7656 33.9949 71.6442 33.8084 69.6551 33.9883C69.023 34.044 69.0363 35.0255 69.675 34.9698C71.2801 34.8259 73.1169 34.8161 74.0833 36.3276C74.1759 36.0855 74.2719 35.8434 74.3646 35.6013C71.9751 36.0953 69.483 36.9492 68.4141 39.3146C68.1526 39.8872 69.0197 40.3681 69.2812 39.7923Z" fill="#46A358"/>
<path d="M35.4314 25.9138C34.9946 26.4831 34.5048 27.193 33.78 27.4221C33.0651 27.6478 32.3006 27.3239 32.3569 26.47C32.3999 25.8026 32.9791 25.3151 33.5417 25.037C34.197 24.7131 35.9941 24.5593 35.5175 25.8026C35.2924 26.3948 36.2555 26.627 36.4806 26.0447C36.9406 24.844 35.8352 23.7938 34.6636 23.7709C33.4325 23.748 31.9995 24.5561 31.5361 25.711C31.1026 26.7808 31.556 28.1189 32.7607 28.4232C34.2334 28.7929 35.3487 27.638 36.1496 26.5976C36.5302 26.0938 35.8187 25.41 35.4314 25.9138Z" fill="#46A358"/>
<path d="M43.9965 10.6809C43.3776 10.7954 42.4807 11.1945 41.8618 10.8674C41.2429 10.5369 41.3555 9.71573 41.7129 9.24134C42.0869 8.74731 42.676 8.56737 43.2717 8.73096C43.7549 8.86509 45.2607 10.1149 44.2116 10.5467C43.6291 10.7856 43.9038 11.7311 44.4962 11.489C45.7373 10.9786 45.6942 9.55869 44.8967 8.64589C44.0924 7.72328 42.6528 7.37321 41.5772 8.0439C40.6373 8.63281 40.1144 9.9153 40.6241 10.9426C41.3455 12.4018 43.0334 11.8521 44.2811 11.6231C44.9066 11.5053 44.6187 10.5631 43.9965 10.6809Z" fill="#46A358"/>
<path d="M55.7916 4.6937C54.9311 4.9129 53.9283 5.17136 53.0414 4.9587C51.7937 4.66425 51.7473 3.25089 52.6244 2.51803C53.326 1.9324 54.4016 1.86696 55.2521 2.12215C55.7883 2.28247 56.4171 2.62927 56.5627 3.21162C56.7017 3.758 56.4336 4.29782 55.8776 4.43196C55.2587 4.58246 55.5401 5.5247 56.1622 5.37421C57.6416 5.01432 57.9659 3.19199 57.0558 2.11888C56.0299 0.911631 53.9713 0.705515 52.5913 1.37294C51.2939 2.0011 50.503 3.68929 51.3668 4.97833C52.3662 6.47349 54.62 6.00237 56.0729 5.6294C56.6918 5.47563 56.4105 4.53338 55.7916 4.6937Z" fill="#46A358"/>
<path d="M62.8706 14.3419C61.4442 14.09 59.8821 14.4989 59.2302 15.8959C58.7006 17.0279 59.2004 18.4969 60.4315 18.9222C61.6726 19.3508 63.5557 18.8208 64.2441 17.6823C64.9027 16.5863 64.4261 15.1958 63.3869 14.5414C62.8475 14.2012 62.3676 15.0616 62.9037 15.3986C63.5723 15.8174 63.7907 16.7695 63.2446 17.3813C62.7581 17.9276 61.7189 18.1599 61.014 18.0356C60.1072 17.8753 59.7564 16.9363 60.2098 16.1609C60.7062 15.3136 61.7288 15.1369 62.629 15.2939C63.2545 15.4052 63.4994 14.4531 62.8706 14.3419Z" fill="#46A358"/>
<path d="M70.5653 19.7663C69.3109 19.6845 67.5735 19.8612 67.2955 21.3793C67.0671 22.6225 68.4968 24.2649 69.5923 24.7066C72.7197 25.9662 73.3883 19.6845 70.691 19.8514C70.0556 19.8907 70.0721 20.8722 70.7109 20.8329C71.5879 20.7773 71.3728 22.8286 71.1742 23.2343C70.7076 24.1995 69.814 23.8461 69.2249 23.231C68.7715 22.7566 67.9574 21.9158 68.4273 21.2353C68.8807 20.581 69.8934 20.7053 70.5851 20.7478C71.2238 20.7904 71.1974 19.8089 70.5653 19.7663Z" fill="#46A358"/>
<path d="M52.6376 7.17682C52.5383 7.50726 52.4357 7.8377 52.3364 8.16814C52.214 8.57383 52.856 8.73087 52.9785 8.32845C53.0778 7.99801 53.1804 7.66757 53.2797 7.33713C53.4021 6.93145 52.7601 6.7744 52.6376 7.17682Z" fill="#46A358"/>
<path d="M54.0508 7.23257C54.0541 7.45177 54.0607 7.6677 54.064 7.8869C54.0739 8.30895 54.7358 8.29587 54.7259 7.87382C54.7226 7.65462 54.716 7.43868 54.7127 7.21948C54.7061 6.79743 54.0441 6.81052 54.0508 7.23257Z" fill="#46A358"/>
<path d="M53.5808 11.1683C54.0077 11.1585 53.9945 10.5041 53.5676 10.5139C53.144 10.5205 53.1572 11.1748 53.5808 11.1683Z" fill="#46A358"/>
<path d="M51.605 11.5348C51.5752 11.8979 51.5455 12.2643 51.519 12.6275C51.5058 12.8042 51.6911 12.9514 51.8566 12.9481C52.0518 12.9449 52.1677 12.7911 52.1809 12.6144C52.2107 12.2513 52.2405 11.8848 52.2669 11.5217C52.2802 11.345 52.0948 11.1978 51.9294 11.201C51.7341 11.2043 51.6183 11.3581 51.605 11.5348Z" fill="#46A358"/>
<path d="M53.1704 12.5948C53.1804 12.9939 53.187 13.393 53.1969 13.7955C53.2068 14.2175 53.8687 14.2044 53.8588 13.7824C53.8489 13.3832 53.8423 12.9841 53.8323 12.5817C53.8224 12.1596 53.1605 12.1727 53.1704 12.5948Z" fill="#46A358"/>
<path d="M54.342 10.2785C54.385 10.6057 54.4281 10.9328 54.4711 11.2567C54.4942 11.4334 54.6167 11.5806 54.8087 11.5774C54.9708 11.5741 55.1562 11.4203 55.133 11.2436C55.09 10.9165 55.0469 10.5893 55.0039 10.2654C54.9807 10.0887 54.8583 9.94151 54.6663 9.94478C54.5009 9.94805 54.3155 10.1018 54.342 10.2785Z" fill="#46A358"/>
<path d="M54.438 15.186C54.4413 15.3692 54.4446 15.5491 54.4479 15.7324C54.4578 16.1544 55.1197 16.1413 55.1098 15.7193C55.1065 15.5361 55.1032 15.3561 55.0999 15.1729C55.09 14.7509 54.4281 14.7639 54.438 15.186Z" fill="#46A358"/>
<path d="M53.005 9.86954C52.9719 10.1934 53.0447 10.4977 53.1804 10.7922C53.2532 10.9525 53.4981 10.9852 53.6371 10.9001C53.8059 10.7987 53.8191 10.6122 53.7463 10.4486C53.6603 10.2621 53.647 10.056 53.6669 9.85318C53.6834 9.67651 53.4915 9.52928 53.3293 9.53256C53.134 9.5391 53.0215 9.69287 53.005 9.86954Z" fill="#46A358"/>
<path d="M50.6949 15.0649C50.6287 15.4313 50.5625 15.7944 50.4963 16.1609C50.4202 16.5731 51.0623 16.7367 51.1384 16.3212C51.2046 15.9548 51.2708 15.5916 51.337 15.2252C51.4098 14.8129 50.771 14.6494 50.6949 15.0649Z" fill="#46A358"/>
<path d="M52.5185 17.3223C52.4887 17.5775 52.4556 17.8327 52.4258 18.0879C52.4059 18.2646 52.4754 18.438 52.6641 18.487C52.8196 18.5263 53.0447 18.4282 53.0678 18.2515C53.0976 17.9963 53.1307 17.7411 53.1605 17.4859C53.1804 17.3092 53.1109 17.1358 52.9222 17.0868C52.7667 17.0442 52.5416 17.1457 52.5185 17.3223Z" fill="#46A358"/>
<path d="M51.936 21.978C51.9889 22.2561 51.9558 22.5277 51.8665 22.7927C51.7308 23.1918 52.3728 23.3522 52.5085 22.953C52.6376 22.5735 52.6475 22.1842 52.5714 21.7916C52.5383 21.6182 52.3199 21.5233 52.161 21.5724C51.9724 21.628 51.8996 21.8046 51.936 21.978Z" fill="#46A358"/>
<path d="M49.9139 19.3378C49.8841 19.593 49.851 19.8482 49.8212 20.1034C49.8014 20.2801 49.8709 20.4535 50.0595 20.5025C50.215 20.5418 50.4401 20.4436 50.4633 20.267C50.493 20.0118 50.5261 19.7566 50.5559 19.5014C50.5758 19.3247 50.5063 19.1513 50.3176 19.1022C50.1588 19.063 49.9337 19.1611 49.9139 19.3378Z" fill="#46A358"/>
<path d="M54.4214 19.8579C54.5009 20.2211 54.577 20.5842 54.6564 20.9441C54.7458 21.3563 55.3812 21.1666 55.2918 20.7576C55.2124 20.3945 55.1363 20.0313 55.0569 19.6714C54.9675 19.2592 54.3354 19.4457 54.4214 19.8579Z" fill="#46A358"/>
<path d="M54.855 24.6673C54.8616 25.0305 54.8715 25.3937 54.8782 25.7568C54.8881 26.1789 55.55 26.1658 55.5401 25.7437C55.5334 25.3806 55.5235 25.0174 55.5169 24.6543C55.5103 24.2322 54.8484 24.2453 54.855 24.6673Z" fill="#46A358"/>
<path d="M54.0739 29.4637C54.117 29.7189 54.1567 29.9708 54.1997 30.226C54.2295 30.3994 54.4545 30.491 54.6101 30.4452C54.7987 30.3896 54.8616 30.2129 54.8318 30.0395C54.7888 29.7843 54.7491 29.5324 54.7061 29.2772C54.6763 29.1038 54.4512 29.0122 54.2957 29.058C54.107 29.1103 54.0442 29.287 54.0739 29.4637Z" fill="#46A358"/>
<path d="M51.3734 27.0295C51.3767 27.2487 51.3833 27.4646 51.3866 27.6839C51.3965 28.1059 52.0584 28.0928 52.0485 27.6708C52.0452 27.4516 52.0386 27.2356 52.0353 27.0164C52.0287 26.5944 51.3668 26.6075 51.3734 27.0295Z" fill="#46A358"/>
<path d="M49.5498 24.2289C49.573 24.5004 49.5465 24.7556 49.4671 25.0174C49.3446 25.423 49.9867 25.5801 50.1091 25.1777C50.2051 24.8669 50.2382 24.5397 50.2117 24.2158C50.1753 23.8003 49.5134 23.8101 49.5498 24.2289Z" fill="#46A358"/>
<path d="M50.3805 31.7604C50.3474 32.0156 50.3176 32.2708 50.2845 32.526C50.2614 32.7026 50.3342 32.876 50.5228 32.9251C50.6784 32.9644 50.9034 32.8662 50.9266 32.6896C50.9597 32.4344 50.9895 32.1792 51.0226 31.924C51.0457 31.7473 50.9729 31.5739 50.7843 31.5249C50.6254 31.4856 50.4037 31.5837 50.3805 31.7604Z" fill="#46A358"/>
<path d="M53.7562 35.4672C53.7992 35.6831 53.839 35.9023 53.882 36.1183C53.9151 36.2917 54.1335 36.3866 54.2924 36.3375C54.4777 36.2819 54.5472 36.1052 54.5141 35.9318C54.4711 35.7159 54.4314 35.4967 54.3883 35.2807C54.3552 35.1073 54.1368 35.0125 53.978 35.0615C53.7926 35.1171 53.7231 35.2938 53.7562 35.4672Z" fill="#46A358"/>
<path d="M51.9658 39.2133C52.0452 39.5764 52.1279 39.9363 52.2074 40.2995C52.3 40.7117 52.9322 40.5219 52.8428 40.113C52.7634 39.7498 52.6806 39.3899 52.6012 39.0268C52.5085 38.6145 51.8731 38.801 51.9658 39.2133Z" fill="#46A358"/>
<path d="M55.6592 41.5819C55.5897 41.8371 55.5235 42.0922 55.454 42.3507C55.3448 42.7597 55.9868 42.92 56.0961 42.511C56.1656 42.2558 56.2317 42.0006 56.3012 41.7422C56.4105 41.3332 55.7684 41.1729 55.6592 41.5819Z" fill="#46A358"/>
<path d="M55.1661 13.187C55.2091 13.4422 55.2521 13.6942 55.2952 13.9494C55.3249 14.1228 55.55 14.2144 55.7055 14.1686C55.8942 14.1129 55.9571 13.9363 55.9273 13.7629C55.8842 13.5077 55.8412 13.2558 55.7982 13.0006C55.7684 12.8272 55.5434 12.7356 55.3878 12.7814C55.2025 12.837 55.1363 13.0137 55.1661 13.187Z" fill="#46A358"/>
<path d="M55.2455 17.679C55.2918 18.0061 55.3382 18.33 55.3845 18.6572C55.411 18.8306 55.5268 18.9811 55.7221 18.9778C55.8842 18.9745 56.0696 18.8208 56.0464 18.6441C56.0001 18.3169 55.9538 17.993 55.9074 17.6659C55.8809 17.4925 55.7651 17.342 55.5698 17.3452C55.4077 17.3485 55.219 17.5056 55.2455 17.679Z" fill="#46A358"/>
<path d="M60.2098 21.3106C60.1204 21.8243 60.0278 22.3347 59.9384 22.8483C59.8656 23.2605 60.5076 23.4241 60.5804 23.0086C60.6698 22.495 60.7625 21.9846 60.8518 21.4709C60.9246 21.0587 60.2826 20.8951 60.2098 21.3106Z" fill="#46A358"/>
<path d="M61.4972 20.388C61.5038 20.6432 61.5071 20.8984 61.5137 21.1503C61.5237 21.5724 62.1856 21.5593 62.1756 21.1372C62.169 20.8821 62.1657 20.6269 62.1591 20.3749C62.1492 19.9529 61.4906 19.966 61.4972 20.388Z" fill="#46A358"/>
<path d="M61.1364 23.8854C61.0736 24.4318 61.014 24.9782 60.9511 25.5245C60.9048 25.9433 61.5667 25.9237 61.613 25.5114C61.6759 24.9651 61.7355 24.4187 61.7983 23.8723C61.8447 23.4568 61.1828 23.4732 61.1364 23.8854Z" fill="#46A358"/>
<path d="M59.4221 24.844C59.2798 25.1384 59.1408 25.4329 58.9985 25.7241C58.8165 26.1036 59.3956 26.4242 59.5777 26.0414C59.72 25.747 59.859 25.4525 60.0013 25.1613C60.1833 24.7818 59.6041 24.4612 59.4221 24.844Z" fill="#46A358"/>
<path d="M58.4259 23.0937C58.3399 23.3162 58.2572 23.5354 58.1711 23.7579C58.1082 23.9247 58.2505 24.1145 58.4094 24.157C58.598 24.2061 58.747 24.085 58.8132 23.9214C58.8992 23.699 58.9819 23.4798 59.068 23.2573C59.1309 23.0904 58.9886 22.9007 58.8297 22.8581C58.6411 22.8091 58.4921 22.9268 58.4259 23.0937Z" fill="#46A358"/>
<path d="M60.3157 27.3926C60.3024 27.6838 60.2925 27.975 60.2793 28.2662C60.2627 28.6882 60.9246 28.6718 60.9412 28.2531C60.9544 27.9619 60.9643 27.6707 60.9776 27.3795C60.9941 26.9575 60.3322 26.9738 60.3157 27.3926Z" fill="#46A358"/>
<path d="M61.6726 29.1103C61.6593 29.3818 61.6461 29.6566 61.6329 29.9282C61.6229 30.1049 61.8017 30.2521 61.9704 30.2488C62.1591 30.2455 62.2848 30.0918 62.2948 29.9151C62.308 29.6435 62.3213 29.3687 62.3345 29.0972C62.3444 28.9205 62.1657 28.7733 61.9969 28.7766C61.8083 28.7798 61.6825 28.9336 61.6726 29.1103Z" fill="#46A358"/>
<path d="M61.1497 32.0351C61.1199 32.2707 61.0868 32.5095 61.057 32.7451C61.0339 32.9185 61.11 33.0951 61.2953 33.1442C61.4542 33.1835 61.6759 33.0853 61.6991 32.9086C61.7288 32.6731 61.7619 32.4343 61.7917 32.1987C61.8149 32.0253 61.7388 31.8486 61.5534 31.7995C61.3946 31.757 61.1729 31.8584 61.1497 32.0351Z" fill="#46A358"/>
<path d="M58.6808 30.0133C58.6477 30.2129 58.6146 30.4157 58.5815 30.6153C58.5517 30.7887 58.6378 30.9654 58.8198 31.0145C58.9819 31.0537 59.1938 30.9523 59.2235 30.7789C59.2566 30.5793 59.2897 30.3765 59.3228 30.1769C59.3526 30.0035 59.2666 29.8268 59.0845 29.7778C58.9224 29.7352 58.7106 29.8367 58.6808 30.0133Z" fill="#46A358"/>
<path d="M59.1574 35.2153C59.1607 35.3592 59.164 35.5064 59.1673 35.6504C59.1772 36.0724 59.8391 36.0594 59.8292 35.6373C59.8259 35.4934 59.8226 35.3461 59.8193 35.2022C59.8093 34.7801 59.1474 34.7932 59.1574 35.2153Z" fill="#46A358"/>
<path d="M61.2953 37.1356C61.2986 37.2796 61.3019 37.4268 61.3052 37.5708C61.3152 37.9928 61.9771 37.9797 61.9671 37.5577C61.9638 37.4137 61.9605 37.2665 61.9572 37.1226C61.9473 36.7005 61.2854 36.7136 61.2953 37.1356Z" fill="#46A358"/>
<path d="M59.389 41.101C59.4155 41.3562 59.389 41.5918 59.3063 41.8339C59.25 42.0007 59.3824 42.1905 59.5446 42.233C59.7299 42.2788 59.8888 42.1643 59.9483 41.9975C60.0476 41.7063 60.084 41.3955 60.0509 41.0912C60.0311 40.9146 59.902 40.7673 59.7134 40.7706C59.5446 40.7706 59.3692 40.9244 59.389 41.101Z" fill="#46A358"/>
<path d="M60.2065 19.6518C60.1204 19.8186 60.0311 19.9855 59.945 20.1491C59.7498 20.522 60.3256 20.8427 60.5242 20.4664C60.6102 20.2996 60.6996 20.1327 60.7856 19.9691C60.9809 19.5962 60.405 19.2755 60.2065 19.6518Z" fill="#46A358"/>
<path d="M43.04 13.4324C43.0996 13.776 43.1625 14.1228 43.222 14.4663C43.2518 14.6397 43.4769 14.7313 43.6324 14.6855C43.8211 14.6299 43.8873 14.4532 43.8542 14.2798C43.7946 13.9363 43.7317 13.5895 43.6721 13.2459C43.6423 13.0725 43.4173 12.9809 43.2618 13.0267C43.0731 13.0824 43.0069 13.259 43.04 13.4324Z" fill="#46A358"/>
<path d="M44.0262 15.595C44.1785 15.9549 44.334 16.318 44.4863 16.6779C44.5558 16.8415 44.7146 16.9528 44.8967 16.8971C45.0522 16.8513 45.1879 16.655 45.1184 16.4914C44.9662 16.1316 44.8106 15.7684 44.6584 15.4085C44.5889 15.2449 44.43 15.1337 44.248 15.1893C44.0924 15.2351 43.9567 15.4314 44.0262 15.595Z" fill="#46A358"/>
<path d="M43.1228 16.8023C43.0466 17.3061 43.0533 17.787 43.1426 18.2843C43.2154 18.6966 43.8475 18.5101 43.778 18.0978C43.7118 17.7249 43.7118 17.3388 43.7681 16.9626C43.8244 16.5503 43.1823 16.3868 43.1228 16.8023Z" fill="#46A358"/>
<path d="M44.3804 18.6932C44.4929 19.0007 44.6021 19.3116 44.7146 19.6191C44.8569 20.015 45.4924 19.8318 45.3501 19.4326C45.2375 19.1251 45.1283 18.8143 45.0158 18.5067C44.8735 18.1108 44.2381 18.2941 44.3804 18.6932Z" fill="#46A358"/>
<path d="M42.8414 20.0019C42.8481 20.3651 42.858 20.7282 42.8646 21.0914C42.8745 21.5134 43.5364 21.5004 43.5265 21.0783C43.5199 20.7152 43.51 20.352 43.5033 19.9888C43.4967 19.5668 42.8348 19.5799 42.8414 20.0019Z" fill="#46A358"/>
<path d="M44.0825 21.2321C44.0891 21.5592 44.0957 21.8864 44.1024 22.2136C44.1123 22.6356 44.7742 22.6225 44.7643 22.2005C44.7577 21.8733 44.751 21.5462 44.7444 21.219C44.7345 20.7969 44.0726 20.81 44.0825 21.2321Z" fill="#46A358"/>
<path d="M45.9325 21.8798C46.0649 22.2594 46.2006 22.6389 46.333 23.0184C46.472 23.4143 47.1074 23.231 46.9684 22.8319C46.836 22.4524 46.7003 22.0729 46.568 21.6933C46.429 21.2975 45.7935 21.4807 45.9325 21.8798Z" fill="#46A358"/>
<path d="M46.6573 25.1384C46.697 25.338 46.7401 25.5375 46.7798 25.7371C46.8162 25.9105 47.0313 26.0054 47.1901 25.9563C47.3755 25.9007 47.4483 25.724 47.4119 25.5506C47.3722 25.351 47.3291 25.1515 47.2894 24.9519C47.253 24.7785 47.0379 24.6836 46.8791 24.7327C46.697 24.785 46.6209 24.965 46.6573 25.1384Z" fill="#46A358"/>
<path d="M44.8404 25.1744C44.9496 25.4819 45.029 25.796 45.0654 26.1199C45.0853 26.2966 45.2144 26.4438 45.403 26.4405C45.5685 26.4372 45.7472 26.2835 45.7273 26.1068C45.6843 25.724 45.6049 25.351 45.4758 24.9879C45.3335 24.592 44.6981 24.7752 44.8404 25.1744Z" fill="#46A358"/>
<path d="M43.1426 23.869C43.1492 24.1242 43.1525 24.3794 43.1592 24.6313C43.1691 25.0534 43.831 25.0403 43.8211 24.6182C43.8144 24.363 43.8111 24.1078 43.8045 23.8559C43.7946 23.4339 43.136 23.447 43.1426 23.869Z" fill="#46A358"/>
<path d="M43.9402 27.7787C43.9667 28.1058 44.0296 28.4265 44.1388 28.734C44.2811 29.1299 44.9165 28.9466 44.7742 28.5475C44.6815 28.2923 44.622 28.0339 44.6021 27.7656C44.5723 27.3468 43.9104 27.3599 43.9402 27.7787Z" fill="#46A358"/>
<path d="M45.3898 30.5629C45.4493 30.7625 45.5089 30.9621 45.5685 31.1584C45.6876 31.5608 46.3231 31.3776 46.2039 30.9719C46.1443 30.7723 46.0848 30.576 46.0252 30.3765C45.9061 29.974 45.2706 30.1573 45.3898 30.5629Z" fill="#46A358"/>
<path d="M46.1675 28.0372C46.2072 28.1812 46.2469 28.3251 46.2866 28.4724C46.3992 28.878 47.0346 28.6916 46.9221 28.2859C46.8824 28.1419 46.8426 27.998 46.8029 27.8507C46.6904 27.445 46.055 27.6315 46.1675 28.0372Z" fill="#46A358"/>
<path d="M44.291 33.4779C44.3737 33.8018 44.4532 34.129 44.5359 34.4529C44.6385 34.8618 45.2739 34.6753 45.1713 34.2664C45.0886 33.9425 45.0092 33.6153 44.9264 33.2914C44.8238 32.8824 44.1884 33.0689 44.291 33.4779Z" fill="#46A358"/>
<path d="M45.9358 38.2416C45.9954 38.3856 46.0517 38.5295 46.1112 38.6735C46.1774 38.8371 46.3396 38.9483 46.5216 38.8927C46.6805 38.8469 46.8096 38.6506 46.7434 38.487C46.6838 38.343 46.6275 38.1991 46.568 38.0551C46.5018 37.8915 46.3396 37.7803 46.1576 37.8359C45.9987 37.8817 45.8697 38.078 45.9358 38.2416Z" fill="#46A358"/>
<path d="M67.4808 24.6836C67.3054 25.0337 67.1267 25.3805 66.9513 25.7306C66.7593 26.1068 67.3385 26.4274 67.5304 26.0479C67.7058 25.6979 67.8845 25.3511 68.06 25.001C68.2519 24.6247 67.6727 24.3074 67.4808 24.6836Z" fill="#46A358"/>
<path d="M68.4074 25.5048C68.3247 25.8353 68.2387 26.1625 68.1559 26.4929C68.05 26.9019 68.6921 27.0622 68.798 26.6532C68.8807 26.3228 68.9668 25.9956 69.0495 25.6652C69.1521 25.2595 68.51 25.0992 68.4074 25.5048Z" fill="#46A358"/>
<path d="M67.5933 28.6326C67.5106 28.9075 67.4278 29.1823 67.3418 29.4571C67.2193 29.8628 67.8614 30.0198 67.9838 29.6174C68.0666 29.3426 68.1493 29.0678 68.2354 28.7929C68.3545 28.3905 67.7124 28.2302 67.5933 28.6326Z" fill="#46A358"/>
<path d="M67.0373 27.3076C66.9678 27.4352 66.895 27.5661 66.8255 27.6937C66.6203 28.0634 67.1995 28.384 67.4047 28.011C67.4742 27.8834 67.547 27.7525 67.6165 27.6249C67.8217 27.2585 67.2425 26.9379 67.0373 27.3076Z" fill="#46A358"/>
<path d="M68.6722 27.4646C68.6424 27.7198 68.6126 27.975 68.5828 28.2302C68.563 28.4068 68.6325 28.5802 68.8211 28.6293C68.9767 28.6686 69.2017 28.5704 69.2249 28.3938C69.2547 28.1386 69.2845 27.8834 69.3143 27.6282C69.3341 27.4515 69.2646 27.2781 69.076 27.229C68.9171 27.1898 68.6921 27.2879 68.6722 27.4646Z" fill="#46A358"/>
<path d="M65.5546 29.1626C65.4885 29.372 65.3892 29.5618 65.27 29.745C65.0384 30.0983 65.6175 30.4157 65.8492 30.0623C66.0014 29.8333 66.114 29.5847 66.1967 29.3229C66.2496 29.1561 66.1239 28.9663 65.9584 28.9238C65.7731 28.8813 65.6076 28.9925 65.5546 29.1626Z" fill="#46A358"/>
<path d="M65.5348 31.9763C65.3925 32.2086 65.323 32.4736 65.3362 32.7451C65.3561 33.1639 66.018 33.1541 65.9981 32.7321C65.9915 32.5685 66.0246 32.4343 66.114 32.2969C66.3357 31.9338 65.7565 31.6164 65.5348 31.9763Z" fill="#46A358"/>
<path d="M67.259 31.2565C67.1929 31.4757 67.1267 31.6982 67.0638 31.9174C66.9446 32.3231 67.5867 32.4801 67.7058 32.0777C67.772 31.8585 67.8382 31.636 67.9011 31.4168C68.0202 31.0111 67.3782 30.8541 67.259 31.2565Z" fill="#46A358"/>
<path d="M66.713 34.4823C66.6435 34.7211 66.5773 34.9567 66.5078 35.1955C66.392 35.6012 67.034 35.7616 67.1498 35.3559C67.2193 35.117 67.2855 34.8815 67.355 34.6426C67.4709 34.2402 66.8288 34.0799 66.713 34.4823Z" fill="#46A358"/>
<path d="M68.8112 29.8366C68.7947 29.9838 68.7814 30.1278 68.7649 30.275C68.745 30.4517 68.9403 30.5989 69.1024 30.5956C69.301 30.5924 69.4069 30.4386 69.4268 30.2619C69.4433 30.1147 69.4566 29.9707 69.4731 29.8235C69.493 29.6468 69.2977 29.4996 69.1355 29.5029C68.937 29.5094 68.8311 29.6599 68.8112 29.8366Z" fill="#46A358"/>
<path d="M64.6545 36.38C64.6214 36.4912 64.585 36.5992 64.5519 36.7104C64.4261 37.1128 65.0681 37.2731 65.1939 36.8707C65.227 36.7595 65.2634 36.6515 65.2965 36.5403C65.4223 36.1379 64.7802 35.9808 64.6545 36.38Z" fill="#46A358"/>
<path d="M64.1216 39.7203C64.0521 39.9036 63.9793 40.0868 63.9098 40.27C63.8469 40.4336 63.9892 40.6266 64.1481 40.6691C64.3401 40.7182 64.4857 40.5972 64.5519 40.4336C64.6214 40.2504 64.6942 40.0671 64.7637 39.8839C64.8265 39.7203 64.6842 39.5273 64.5254 39.4848C64.3334 39.4357 64.1878 39.5535 64.1216 39.7203Z" fill="#46A358"/>
<path d="M66.7262 38.3888C66.7295 38.4968 66.7295 38.608 66.7328 38.716C66.7428 39.138 67.4047 39.1249 67.3947 38.7029C67.3914 38.5949 67.3914 38.4837 67.3881 38.3757C67.3782 37.9537 66.7163 37.9668 66.7262 38.3888Z" fill="#46A358"/>
<path d="M65.4918 42.7237C65.4752 42.8709 65.462 43.0148 65.4454 43.1621C65.4256 43.3387 65.6208 43.486 65.783 43.4827C65.9816 43.4794 66.0875 43.3257 66.1073 43.149C66.1239 43.0018 66.1371 42.8578 66.1537 42.7106C66.1735 42.5339 65.9783 42.3867 65.8161 42.3899C65.6208 42.3932 65.5116 42.547 65.4918 42.7237Z" fill="#46A358"/>
<path d="M35.2593 29.0808C35.3156 29.2607 35.3752 29.444 35.4314 29.6239C35.5572 30.0263 36.1926 29.8398 36.0669 29.4374C36.0106 29.2575 35.951 29.0743 35.8948 28.8943C35.7657 28.4919 35.1303 28.6784 35.2593 29.0808Z" fill="#46A358"/>
<path d="M35.9411 28.3382C36.1628 28.6097 36.3879 28.8813 36.6096 29.1495C36.7222 29.287 36.9637 29.2575 37.0763 29.1397C37.212 28.999 37.1789 28.8158 37.0663 28.6784C36.8446 28.4069 36.6196 28.1353 36.3978 27.867C36.2853 27.7296 36.0437 27.7591 35.9312 27.8769C35.7955 28.0143 35.8286 28.2008 35.9411 28.3382Z" fill="#46A358"/>
<path d="M37.212 30.6415C37.4039 30.9098 37.5959 31.1781 37.7845 31.4431C38.0294 31.7866 38.5953 31.4463 38.3504 31.1028C38.1585 30.8345 37.9665 30.5662 37.7779 30.3012C37.5297 29.9577 36.9637 30.2947 37.212 30.6415Z" fill="#46A358"/>
<path d="M36.3978 31.4234C36.5501 31.6753 36.7023 31.9272 36.8545 32.1791C37.073 32.539 37.6389 32.1988 37.4205 31.8389C37.2682 31.5869 37.116 31.335 36.9637 31.0831C36.742 30.7199 36.1794 31.0602 36.3978 31.4234Z" fill="#46A358"/>
<path d="M37.8805 34.1225C38.0724 34.4628 38.2677 34.803 38.4596 35.1433C38.6681 35.5097 39.2341 35.1695 39.0256 34.803C38.8336 34.4628 38.6384 34.1225 38.4464 33.7823C38.2346 33.4158 37.672 33.7561 37.8805 34.1225Z" fill="#46A358"/>
<path d="M38.4663 33.1311C38.5986 33.3274 38.731 33.527 38.8634 33.7233C39.0984 34.0734 39.6643 33.7331 39.4293 33.383C39.297 33.1867 39.1646 32.9872 39.0322 32.7909C38.7939 32.4408 38.228 32.7778 38.4663 33.1311Z" fill="#46A358"/>
<path d="M38.7741 31.7571C38.8833 31.9894 39.0686 32.1694 39.2903 32.3002C39.661 32.5129 39.982 31.9404 39.6114 31.7277C39.479 31.6524 39.3996 31.551 39.3367 31.4169C39.2606 31.2566 39.0223 31.2239 38.88 31.3089C38.7178 31.4103 38.6979 31.5968 38.7741 31.7571Z" fill="#46A358"/>
<path d="M36.2919 33.4747C36.3349 33.6546 36.3747 33.8345 36.4177 34.0177C36.4574 34.1911 36.6659 34.286 36.8281 34.2369C37.0101 34.1846 37.0895 34.0014 37.0498 33.8313C37.0068 33.6513 36.9671 33.4714 36.924 33.2882C36.8843 33.1148 36.6758 33.0199 36.5137 33.069C36.3316 33.1213 36.2522 33.3045 36.2919 33.4747Z" fill="#46A358"/>
<path d="M38.3802 36.8936C38.5325 37.2011 38.6847 37.5086 38.8336 37.8129C38.9131 37.9732 39.148 38.0059 39.2903 37.9209C39.4558 37.8227 39.479 37.6297 39.3996 37.4694C39.2473 37.1618 39.0951 36.8543 38.9461 36.55C38.8667 36.3897 38.6317 36.357 38.4894 36.4421C38.324 36.5435 38.3008 36.7365 38.3802 36.8936Z" fill="#46A358"/>
<path d="M40.8524 35.9678C40.9683 36.1837 41.0808 36.3997 41.1966 36.6156C41.3952 36.9886 41.9578 36.645 41.7625 36.2753C41.6467 36.0594 41.5342 35.8435 41.4184 35.6275C41.2165 35.2546 40.6539 35.5948 40.8524 35.9678Z" fill="#46A358"/>
<path d="M41.607 40.6463C41.703 40.8262 41.7989 41.0062 41.8982 41.1828C42.1001 41.5558 42.6627 41.2123 42.4642 40.8426C42.3682 40.6626 42.2722 40.4827 42.1729 40.306C41.971 39.933 41.4051 40.2733 41.607 40.6463Z" fill="#46A358"/>
<path d="M42.7819 38.9875C42.8944 39.1675 43.0102 39.3474 43.1228 39.5274C43.3478 39.884 43.9137 39.5437 43.6887 39.1871C43.5762 39.0072 43.4603 38.8272 43.3478 38.6473C43.1194 38.2907 42.5535 38.6309 42.7819 38.9875Z" fill="#46A358"/>
<path d="M44.0991 44.0324C44.1917 44.196 44.2877 44.3563 44.3804 44.5199C44.5922 44.8863 45.1548 44.5428 44.9463 44.1796C44.8536 44.0161 44.7577 43.8558 44.665 43.6922C44.4532 43.3257 43.8873 43.666 44.0991 44.0324Z" fill="#46A358"/>
<path d="M33.4259 42.0106C33.6476 42.1153 33.8727 42.2167 34.0944 42.3214C34.4783 42.5013 34.8026 41.9288 34.4154 41.7489C34.1937 41.6442 33.9686 41.5427 33.7469 41.438C33.3663 41.2614 33.042 41.8306 33.4259 42.0106Z" fill="#46A358"/>
<path d="M35.534 42.9625C35.7789 43.1359 36.0238 43.3126 36.2654 43.486C36.4111 43.5907 36.6361 43.5023 36.7155 43.3584C36.8115 43.1882 36.7321 43.0181 36.5865 42.9134C36.3416 42.74 36.0967 42.5633 35.8551 42.3899C35.7094 42.2853 35.4844 42.3736 35.405 42.5175C35.3123 42.6877 35.3917 42.8578 35.534 42.9625Z" fill="#46A358"/>
<path d="M35.2097 41.9615C35.3785 41.9975 35.534 42.0531 35.6863 42.1382C36.0602 42.341 36.3813 41.7685 36.0073 41.5656C35.8087 41.4577 35.5936 41.3759 35.3719 41.3268C34.9582 41.2352 34.7927 41.8699 35.2097 41.9615Z" fill="#46A358"/>
<path d="M37.1491 43.3584C37.298 43.4631 37.4469 43.5711 37.5959 43.6758C37.7415 43.7772 37.9665 43.6921 38.046 43.5482C38.1419 43.378 38.0625 43.2046 37.9169 43.1032C37.768 42.9985 37.619 42.8906 37.4701 42.7859C37.3245 42.6844 37.0994 42.7695 37.02 42.9135C36.9273 43.0836 37.0035 43.2537 37.1491 43.3584Z" fill="#46A358"/>
<path d="M37.1027 44.3367C37.1789 44.4447 37.255 44.5526 37.3311 44.6606C37.5727 45.0041 38.1386 44.6671 37.897 44.3203C37.8209 44.2124 37.7448 44.1044 37.6687 43.9964C37.4271 43.6496 36.8578 43.9899 37.1027 44.3367Z" fill="#46A358"/>
<path d="M38.602 44.8634C38.7509 44.9877 38.8998 45.112 39.0521 45.2364C39.1877 45.3509 39.3896 45.3607 39.5187 45.2265C39.6378 45.1055 39.6478 44.8765 39.5088 44.7652C39.3598 44.6409 39.2109 44.5166 39.0587 44.3923C38.923 44.2778 38.7211 44.2679 38.592 44.4021C38.4729 44.5199 38.463 44.7489 38.602 44.8634Z" fill="#46A358"/>
<path d="M72.7628 35.2251C72.4087 35.1596 72.0578 35.1662 71.707 35.2545C71.2933 35.3592 71.482 35.9874 71.8957 35.8827C72.1273 35.8238 72.3623 35.814 72.5973 35.8598C73.0176 35.9383 73.1798 35.3036 72.7628 35.2251Z" fill="#46A358"/>
<path d="M70.4792 35.9023C70.3534 35.9971 70.2244 36.0888 70.0986 36.1836C69.9563 36.2883 69.8901 36.4715 69.9894 36.6351C70.0754 36.7758 70.3005 36.8511 70.4461 36.7431C70.5719 36.6482 70.7009 36.5566 70.8267 36.4617C70.969 36.357 71.0352 36.1738 70.9359 36.0102C70.8499 35.8696 70.6248 35.7976 70.4792 35.9023Z" fill="#46A358"/>
<path d="M70.5851 35.5817C71.012 35.5718 70.9988 34.9175 70.5719 34.9273C70.1449 34.9371 70.1582 35.5915 70.5851 35.5817Z" fill="#46A358"/>
<path d="M37.3859 48.6164C35.0446 54.631 33.3971 60.9163 32.8568 67.3709C32.3966 72.8879 32.5367 78.8381 35.5582 83.6511C35.9051 84.2028 36.7589 83.6748 36.412 83.1197C33.3804 78.2932 33.3871 72.238 33.914 66.7244C34.501 60.5812 36.1285 54.5937 38.3564 48.8669C38.5898 48.261 37.6193 48.0173 37.3859 48.6164Z" fill="#727272"/>
<path d="M67.7884 47.6856C73.1145 51.7472 73.1212 59.1934 73.6948 65.3061C73.985 68.3896 74.3852 71.4832 74.5253 74.5801C74.6553 77.4097 74.4219 80.4153 72.2141 82.419C71.7338 82.8556 72.4575 83.5563 72.9344 83.123C74.8788 81.3596 75.4791 78.8346 75.5458 76.2725C75.6425 72.6238 75.0322 68.9142 74.692 65.2892C74.095 58.9193 74.0217 51.1819 68.4788 46.9545C67.9718 46.5652 67.2748 47.2929 67.7884 47.6856Z" fill="#727272"/>
<path d="M35.7583 83.8541C38.5832 84.8864 41.4713 85.1437 44.4429 85.3975C47.7313 85.6785 51.0497 86.1015 54.3547 85.9831C57.7098 85.8646 61.0749 85.3806 64.41 85.0151C67.3282 84.6935 70.223 84.2874 72.9444 83.1095C73.5281 82.8557 73.2513 81.8775 72.6576 82.1347C69.8361 83.3566 66.8412 83.7357 63.8163 84.0606C60.668 84.3991 57.4997 84.856 54.3347 84.9677C51.2331 85.0794 48.1248 84.6969 45.0365 84.4363C41.9582 84.1723 38.9367 83.9421 36.0051 82.8726C35.3982 82.6458 35.158 83.6341 35.7583 83.8541Z" fill="#727272"/>
<path d="M37.626 49.1851C39.9539 50.1497 42.3318 51.0026 44.8431 51.3039C47.4545 51.6153 50.1158 51.1685 52.7439 51.2362C54.2013 51.2734 55.512 51.4731 56.9828 51.2599C58.2501 51.0737 59.5174 50.8165 60.7481 50.4611C63.2994 49.7232 65.7707 48.6943 68.2753 47.8075C68.879 47.5943 68.5988 46.6195 67.9885 46.8327C63.0859 48.5691 58.4902 50.5965 53.1975 50.2478C50.9963 50.1023 48.8052 50.4306 46.6107 50.4103C43.6558 50.3799 40.8143 49.4186 38.1062 48.2983C37.5226 48.0546 37.029 48.938 37.626 49.1851Z" fill="#727272"/>
<path d="M7.66368 52.2414C13.2666 53.1349 18.4793 55.8257 22.3847 60.0193C26.1633 64.0775 28.2878 69.4253 32.4099 73.1924C32.8868 73.6291 33.5839 72.898 33.1036 72.4614C28.7347 68.4675 26.5502 62.6898 22.348 58.5368C18.4126 54.6479 13.3233 52.1195 7.91047 51.2564C7.27681 51.1549 7.02668 52.1398 7.66368 52.2414Z" fill="#727272"/>
<path d="M8.53747 50.4238C13.6235 49.2459 19.0296 49.9465 23.5987 52.5426C27.2439 54.614 30.2355 57.887 34.5877 58.3338C35.2281 58.3981 35.2014 57.3827 34.5677 57.3184C29.6852 56.8174 26.1633 52.353 21.761 50.5186C17.4688 48.7314 12.763 48.4065 8.25399 49.449C7.62366 49.5945 7.91047 50.5693 8.53747 50.4238Z" fill="#727272"/>
<path d="M7.72371 49.7435C7.34018 50.2782 7.09338 50.9044 7.00667 51.5577C6.96998 51.8318 7.08671 52.0992 7.37019 52.1737C7.60698 52.238 7.94049 52.0789 7.97717 51.8047C8.05388 51.2226 8.25732 50.7115 8.5975 50.2342C8.75758 50.0109 8.61751 49.669 8.40406 49.5438C8.14726 49.3982 7.88046 49.5235 7.72371 49.7435Z" fill="#727272"/>
<path d="M71.8105 50.6709C73.8783 46.6533 80.4483 46.1354 84.1569 47.9767C88.1757 49.9737 90.03 54.8103 88.3825 59.0412C86.9484 62.7271 83.2631 64.5311 80.2316 66.6567C78.9542 67.5536 77.5335 68.5623 76.6497 69.8857C75.7259 71.27 75.8459 73.03 74.9321 74.411C74.5719 74.9559 75.4491 75.4433 75.8059 74.9051C76.3829 74.0353 76.5496 73.1079 76.8064 72.1128C77.17 70.7217 77.897 69.8281 78.9409 68.9176C80.7385 67.3505 82.8463 66.2167 84.7606 64.812C88.149 62.3243 90.5269 58.7907 89.8966 54.3636C89.3196 50.3324 86.1246 46.9985 82.1792 46.2641C78.2038 45.5228 72.9644 46.237 70.9334 50.1801C70.6366 50.7555 71.5104 51.2497 71.8105 50.6709Z" fill="#727272"/>
<path d="M72.8244 53.2263C74.2084 50.4238 77.3601 49.6995 80.2216 49.9229C82.1292 50.0718 83.3065 50.8334 84.3037 52.4952C85.4076 54.3297 85.3542 55.8833 84.7306 57.8396C83.7501 60.9061 81.9825 62.3277 79.2644 63.7662C77.4835 64.7071 74.7654 65.9391 74.055 68.0207C73.8449 68.6401 74.8154 68.8838 75.0255 68.2712C75.6725 66.3757 78.8475 65.1437 80.4817 64.2671C81.8991 63.5089 83.2265 62.6729 84.1836 61.336C85.6977 59.2239 86.9417 55.775 85.8445 53.2737C84.5038 50.214 82.4527 48.8567 79.1777 48.8804C76.2628 48.9007 73.3246 49.9567 71.9539 52.7322C71.6638 53.3143 72.5376 53.8085 72.8244 53.2263Z" fill="#727272"/>
<path d="M54.308 60.571C51.3665 61.0144 48.8819 63.2348 48.585 66.3385C48.3016 69.2967 50.2693 73.1485 53.611 72.9217C56.6593 72.7152 59.3673 69.7164 59.6475 66.7176C59.9576 63.4176 57.5197 60.5406 54.208 60.6861C53.5643 60.7132 53.5843 61.7286 54.228 61.7015C57.1328 61.5729 59.1339 64.2671 58.5903 67.1035C58.15 69.3983 55.9689 71.7134 53.591 71.9097C50.6695 72.15 49.1787 68.3964 49.6423 65.9594C50.0858 63.624 52.0569 61.9317 54.328 61.5898C54.955 61.4917 54.945 60.4729 54.308 60.571Z" fill="#727272"/>
<path d="M54.8817 61.0144C54.7049 58.8618 58.0366 55.5888 59.7042 58.0799C60.2211 58.8516 60.7214 60.2224 60.5079 61.1735C60.2778 62.1923 59.294 62.9538 58.5402 63.58C58.0433 63.9929 58.7704 64.6936 59.2606 64.284C60.4479 63.2991 61.6685 62.1178 61.5552 60.4289C61.4618 59.0479 60.708 57.227 59.5208 56.4688C56.9861 54.8476 53.6777 58.5606 53.8811 61.0381C53.9345 61.6846 54.935 61.6677 54.8817 61.0144Z" fill="#727272"/>
<path d="M59.5274 64.5108C60.7814 63.7561 64.0264 63.9557 63.6896 66.1355C63.3694 68.2137 60.718 68.2983 59.1472 68.3186C58.5036 68.3254 58.5236 69.3408 59.1672 69.334C61.3717 69.3069 65.2271 68.6029 64.6768 65.4382C64.2432 62.9539 60.7881 62.568 59.0038 63.6444C58.4502 63.9794 58.9705 64.8459 59.5274 64.5108Z" fill="#727272"/>
<path d="M58.5202 69.52C60.2745 70.3053 62.2488 72.6373 60.5813 74.5192C58.6303 76.7192 55.8088 74.5429 55.0884 72.4207C54.8783 71.8047 53.9178 72.089 54.1279 72.7118C55.0618 75.4534 58.4268 77.8226 61.0215 75.4974C63.5428 73.2398 61.5385 69.7671 59.0071 68.6299C58.4235 68.3692 57.9333 69.256 58.5202 69.52Z" fill="#727272"/>
<path d="M53.6477 72.6746C53.7377 74.3804 53.2675 76.9189 51.0063 76.6143C49.9791 76.4755 49.1887 75.538 49.2354 74.4752C49.2754 73.5207 49.9391 72.4072 50.3026 71.5339C50.5494 70.9382 49.6789 70.4373 49.4288 71.0398C48.8985 72.3192 47.9781 73.8118 48.3182 75.2571C48.595 76.4282 49.5055 77.3589 50.6728 77.5925C53.651 78.1916 54.7749 75.0743 54.6482 72.6509C54.6149 72.001 53.6143 72.0179 53.6477 72.6746Z" fill="#727272"/>
<path d="M50.1659 70.2715C48.3016 71.0533 45.4234 70.8537 44.773 68.481C44.4896 67.4385 44.8064 66.2065 45.7702 65.6413C46.7074 65.093 47.918 65.2385 48.9386 65.3637C49.5689 65.4416 49.8224 64.4566 49.1854 64.3788C47.7713 64.2062 46.1671 64.0539 44.9498 64.9745C43.9393 65.7394 43.5291 67.0798 43.7225 68.3152C44.2228 71.5069 47.9013 72.3091 50.4493 71.2429C51.043 70.9992 50.7628 70.021 50.1659 70.2715Z" fill="#727272"/>
<path d="M49.5455 64.4938C47.8613 63.58 46.9809 60.2224 48.4583 58.7704C50.3993 56.8648 52.7839 59.5657 53.9578 61.0279C54.3647 61.5322 55.0517 60.7978 54.6515 60.2968C53.1174 58.3879 49.799 55.4669 47.5312 58.2187C45.8636 60.2461 46.8608 64.1892 49.0586 65.384C49.6256 65.692 50.1158 64.8052 49.5455 64.4938Z" fill="#727272"/>
<path d="M51.153 71.9571C50.3626 72.7288 49.849 74.8171 51.063 75.45C52.5171 76.2116 53.1608 73.6223 53.3542 72.6881C53.4409 72.2617 52.7939 72.0958 52.7072 72.5223C52.6205 72.9454 52.5104 73.3617 52.357 73.7679C52.2803 73.9676 52.1969 74.1672 52.0969 74.3568C51.9435 74.6513 51.8534 74.8408 51.4999 74.8002C50.5461 74.6817 51.1997 72.8506 51.6366 72.4275C51.9435 72.1229 51.4632 71.6558 51.153 71.9571Z" fill="#727272"/>
<path d="M55.452 72.0044C55.2819 72.9792 56.3691 73.7441 57.1462 74.0927C57.9333 74.4447 59.0305 74.5632 59.7675 74.0115C60.4712 73.4835 60.3612 72.5256 60.0577 71.7945C59.6441 70.7995 58.7937 70.1293 57.8099 69.7773C57.403 69.6317 57.2429 70.2918 57.6464 70.4339C58.2401 70.6471 58.7737 71.0059 59.1506 71.5272C59.2806 71.7099 59.3807 71.9029 59.4641 72.1127C59.6575 72.6069 59.6875 72.8303 59.344 73.2601C59.0505 73.6257 58.8971 73.7103 58.4502 73.7137C58.17 73.7137 57.8799 73.6561 57.6164 73.5613C57.2129 73.4158 55.9956 72.7727 56.099 72.177C56.1723 71.7438 55.5287 71.5745 55.452 72.0044Z" fill="#727272"/>
<path d="M59.3207 67.6248C60.1578 67.838 60.9915 67.4725 61.6952 67.0223C62.2088 66.694 62.8858 66.0949 62.8258 65.401C62.7758 64.8223 62.2088 64.5481 61.7019 64.4872C60.8281 64.3789 59.971 64.7613 59.2606 65.242C58.9038 65.4823 59.2506 66.0644 59.6075 65.8207C59.9777 65.5669 60.3712 65.3435 60.8081 65.2318C61.2116 65.1269 62.3856 64.9577 62.0287 65.8072C61.7152 66.562 60.1944 67.1475 59.4841 66.9681C59.0672 66.8632 58.9038 67.5198 59.3207 67.6248Z" fill="#727272"/>
<path d="M56.209 61.3056C56.1557 60.7911 56.2624 60.28 56.6292 59.901C56.896 59.62 57.5431 59.2477 57.9233 59.4643C58.2601 59.6573 58.2368 60.4696 58.2368 60.8453C58.2334 61.3834 58.12 61.8945 57.9433 62.3988C57.7999 62.8084 58.4469 62.9709 58.5903 62.5647C58.8771 61.7456 58.9771 60.8859 58.8404 60.0228C58.747 59.4305 58.647 58.8416 57.99 58.7536C56.5359 58.5539 55.4053 59.9247 55.5487 61.3225C55.5854 61.749 56.2524 61.7388 56.209 61.3056Z" fill="#727272"/>
<path d="M50.0158 63.5698C49.4988 62.9098 49.0553 61.7117 49.2287 60.8621C49.3321 60.3476 49.4522 60.1987 49.9791 60.1446C50.506 60.0904 50.6361 60.2495 51.0163 60.5609C51.4032 60.8756 51.78 61.2006 52.1636 61.5187C52.4937 61.7929 52.9573 61.3089 52.6238 61.0313C51.6833 60.2461 50.1725 58.4353 48.9752 59.8129C48.0481 60.8824 48.6718 62.9403 49.4455 63.9252C49.709 64.2603 50.2826 63.9117 50.0158 63.5698Z" fill="#727272"/>
<path d="M48.8185 66.2065C47.5178 65.6785 45.8203 66.853 46.0204 68.3354C46.2071 69.7401 48.4383 70.2613 49.4422 69.4693C49.7757 69.2053 49.4322 68.6231 49.0953 68.8905C48.5484 69.3238 47.1876 69.2087 46.7874 68.5622C46.2005 67.6247 47.6312 66.4434 48.4983 66.7988C48.8885 66.9579 49.2154 66.3689 48.8185 66.2065Z" fill="#727272"/>
</svg>
