<svg width="18" height="18" viewBox="0 0 18 18" fill="none" xmlns="http://www.w3.org/2000/svg">
<path fill-rule="evenodd" clip-rule="evenodd" d="M9 4.09091C7.30168 4.09091 4.98846 4.2365 3.51951 4.34356C3.03167 4.37911 2.65385 4.76529 2.65385 5.23696V5.76996L8.53304 8.85802C8.82344 9.01056 9.17656 9.01056 9.46697 8.85802L15.3462 5.76996V5.23696C15.3462 4.76529 14.9683 4.37911 14.4805 4.34356C13.0115 4.2365 10.6983 4.09091 9 4.09091ZM15.3462 7.01792L10.0273 9.81165C9.38843 10.1472 8.61157 10.1472 7.97268 9.81165L2.65385 7.01792V12.763C2.65385 13.2347 3.03167 13.6209 3.51951 13.6564C4.98846 13.7635 7.30168 13.9091 9 13.9091C10.6983 13.9091 13.0115 13.7635 14.4805 13.6564C14.9683 13.6209 15.3462 13.2347 15.3462 12.763V7.01792ZM3.43083 3.25588C4.90066 3.14876 7.25301 3 9 3C10.747 3 13.0993 3.14876 14.5692 3.25588C15.6676 3.33593 16.5 4.20441 16.5 5.23696V12.763C16.5 13.7956 15.6676 14.6641 14.5692 14.7441C13.0993 14.8512 10.747 15 9 15C7.25301 15 4.90066 14.8512 3.43083 14.7441C2.33237 14.6641 1.5 13.7956 1.5 12.763V5.23696C1.5 4.20441 2.33237 3.33593 3.43083 3.25588Z" fill="#3D3D3D"/>
</svg>
